/* XPM */
static char *bitcoin16_xpm[] = {
/* width height num_colors chars_per_pixel */
"    16    16      256            2",
/* colors */
"`` c #ffffff",
"`. c #d6f2fd",
"`# c #73c2e1",
"`a c #31809f",
"`b c #1e6885",
"`c c #1d6783",
"`d c #2f7e9a",
"`e c #70bedb",
"`f c #d8f3fd",
"`g c #f8fcff",
"`h c #6ec0e0",
"`i c #185064",
"`j c #16191a",
"`k c #161819",
"`l c #18495b",
"`m c #6dbcd9",
"`n c #fafdff",
"`o c #48a9cb",
"`p c #16282f",
"`q c #152c2a",
"`r c #144541",
"`s c #14433f",
"`t c #152827",
"`u c #172126",
"`v c #469fbf",
"`w c #70c3e4",
"`x c #17292f",
"`y c #109385",
"`z c #0bfbe2",
"`A c #0bf8df",
"`B c #109486",
"`C c #6dbad9",
"`D c #19576d",
"`E c #0ebead",
"`F c #0ce4ce",
"`G c #0ce7d0",
"`H c #143f3c",
"`I c #d8f3fe",
"`J c #77cbeb",
"`K c #161b1e",
"`L c #0ce9d2",
"`M c #118a7d",
"`N c #153936",
"`O c #135852",
"`P c #73bfdb",
"`Q c #348faf",
"`R c #152d2b",
"`S c #0cf1d9",
"`T c #117168",
"`U c #153937",
"`V c #0cf6de",
"`W c #135953",
"`X c #207395",
"`Y c #0eccb8",
"`Z c #109185",
"`0 c #151e1e",
"`1 c #0cd9c3",
"`2 c #1f6581",
"`3 c #207696",
"`4 c #161c1d",
"`5 c #0cf3db",
"`6 c #0ecab6",
"`7 c #0dd6c1",
"`8 c #0beed7",
".` c #143331",
".. c #1f6683",
".# c #3490b2",
".a c #143e3b",
".b c #0bedd6",
".c c #0fb6a6",
".d c #14413d",
".e c #32809e",
".f c #79cfee",
".g c #161d20",
".h c #162524",
".i c #144543",
".j c #143d3d",
".k c #153030",
".l c #162024",
".m c #162023",
".n c #74c3e0",
".o c #195e79",
".p c #17272d",
".q c #163e4d",
".r c #17485a",
".s c #183742",
".t c #163744",
".u c #185167",
".v c #d8f2fd",
".w c #75caeb",
".x c #172f38",
".y c #173a47",
".z c #162a32",
".A c #174151",
".B c #17495b",
".C c #173c4b",
".D c #74c3e3",
".E c #4cb1d7",
".F c #16252b",
".G c #17282f",
".H c #162429",
".I c #172830",
".J c #4ba8cd",
".K c #fafeff",
".L c #74cbea",
".M c #161c1e",
".N c #18586e",
".O c #75c6e5",
".P c #7ccfef",
".Q c #358fb2",
".R c #207596",
".S c #1f7394",
".T c #348daf",
".U c #7acdec",
".V c #000000",
".W c #000000",
".X c #000000",
".Y c #000000",
".Z c #000000",
".0 c #000000",
".1 c #000000",
".2 c #000000",
".3 c #000000",
".4 c #000000",
".5 c #000000",
".6 c #000000",
".7 c #000000",
".8 c #000000",
"#` c #000000",
"#. c #000000",
"## c #000000",
"#a c #000000",
"#b c #000000",
"#c c #000000",
"#d c #000000",
"#e c #000000",
"#f c #000000",
"#g c #000000",
"#h c #000000",
"#i c #000000",
"#j c #000000",
"#k c #000000",
"#l c #000000",
"#m c #000000",
"#n c #000000",
"#o c #000000",
"#p c #000000",
"#q c #000000",
"#r c #000000",
"#s c #000000",
"#t c #000000",
"#u c #000000",
"#v c #000000",
"#w c #000000",
"#x c #000000",
"#y c #000000",
"#z c #000000",
"#A c #000000",
"#B c #000000",
"#C c #000000",
"#D c #000000",
"#E c #000000",
"#F c #000000",
"#G c #000000",
"#H c #000000",
"#I c #000000",
"#J c #000000",
"#K c #000000",
"#L c #000000",
"#M c #000000",
"#N c #000000",
"#O c #000000",
"#P c #000000",
"#Q c #000000",
"#R c #000000",
"#S c #000000",
"#T c #000000",
"#U c #000000",
"#V c #000000",
"#W c #000000",
"#X c #000000",
"#Y c #000000",
"#Z c #000000",
"#0 c #000000",
"#1 c #000000",
"#2 c #000000",
"#3 c #000000",
"#4 c #000000",
"#5 c #000000",
"#6 c #000000",
"#7 c #000000",
"#8 c #000000",
"a` c #000000",
"a. c #000000",
"a# c #000000",
"aa c #000000",
"ab c #000000",
"ac c #000000",
"ad c #000000",
"ae c #000000",
"af c #000000",
"ag c #000000",
"ah c #000000",
"ai c #000000",
"aj c #000000",
"ak c #000000",
"al c #000000",
"am c #000000",
"an c #000000",
"ao c #000000",
"ap c #000000",
"aq c #000000",
"ar c #000000",
"as c #000000",
"at c #000000",
"au c #000000",
"av c #000000",
"aw c #000000",
"ax c #000000",
"ay c #000000",
"az c #000000",
"aA c #000000",
"aB c #000000",
"aC c #000000",
"aD c #000000",
"aE c #000000",
"aF c #000000",
"aG c #000000",
"aH c #000000",
"aI c #000000",
"aJ c #000000",
"aK c #000000",
"aL c #000000",
"aM c #000000",
"aN c #000000",
"aO c #000000",
"aP c #000000",
"aQ c #000000",
"aR c #000000",
"aS c #000000",
"aT c #000000",
"aU c #000000",
"aV c #000000",
"aW c #000000",
"aX c #000000",
"aY c #000000",
"aZ c #000000",
"a0 c #000000",
"a1 c #000000",
"a2 c #000000",
"a3 c #000000",
"a4 c #000000",
"a5 c #000000",
"a6 c #000000",
"a7 c #000000",
"a8 c #000000",
/* pixels */
"`````````.`#`a`b`c`d`e`f````````",
"`````g`h`i`j`k`k`k`k`k`l`m`n````",
"```g`o`p`k`q`r`r`s`t`k`k`u`v`n``",
"```w`x`k`k`y`z`z`z`A`B`k`k`u`C``",
"`.`D`k`k`k`E`z`F`G`z`z`H`k`k`l`I",
"`J`K`k`k`k`L`z`M`N`z`z`O`k`k`k`P",
"`Q`k`k`k`R`S`z`T`U`V`z`W`k`k`k`d",
"`X`k`k`k`k`Y`z`Z`0`1`z`M`k`k`k`2",
"`3`k`k`k`4`5`z`6`7`z`8.``k`k`k..",
".#`k`k`k.a`z`z`z.b.c.d`k`k`k`k.e",
".f.g`k`k.h.i.j.k.l.m`k`k`k`k`j.n",
"`f.o`k`k`k.p.q.r.s.t.m`k`k`k.u.v",
"``.w.x`k`k.y.z.A.B.B.C`k`k`p.D``",
"```n.E.x`k`K.F.G.H`K.g`k.I.J.K``",
"`````n.L.o.g`k`k`k`k.M.N.O.K````",
"`````````I.P.Q.R.S.T.U.v````````"
};
