/* XPM */
static char *bitcoin64_xpm[] = {
/* width height num_colors chars_per_pixel */
"    64    64      256            2",
/* colors */
"`` c #141a1c",
"`. c #148e7c",
"`# c #8cdafc",
"`a c #14564c",
"`b c #0cc6b4",
"`c c #143a3c",
"`d c #0caa9c",
"`e c #147264",
"`f c #4cc6f4",
"`g c #144a44",
"`h c #146a64",
"`i c #2cbef4",
"`j c #142a24",
"`k c #1c8eb4",
"`l c #d4f2fc",
"`m c #1c7294",
"`n c #0ce6d4",
"`o c #1caadc",
"`p c #14566c",
"`q c #14423c",
"`r c #14322c",
"`s c #6cd2f4",
"`t c #ace6fc",
"`u c #144a5c",
"`v c #1c82a4",
"`w c #1c9ecc",
"`x c #145e74",
"`y c #0ca694",
"`z c #44c6f4",
"`A c #1cb6ec",
"`B c #142224",
"`C c #0cd6c4",
"`D c #0cbaa4",
"`E c #146684",
"`F c #0cf2dc",
"`G c #144254",
"`H c #0c9a8c",
"`I c #9cdefc",
"`J c #147e74",
"`K c #142a34",
"`L c #1c96c4",
"`M c #ecfafc",
"`N c #14323c",
"`O c #7cd6fc",
"`P c #145264",
"`Q c #1c5e74",
"`R c #143a4c",
"`S c #5ccef4",
"`T c #3cc2f4",
"`U c #1c7a9c",
"`V c #1c8ab4",
"`W c #1c6e8c",
"`X c #94dafc",
"`Y c #145e54",
"`Z c #0ccebc",
"`0 c #14524c",
"`1 c #1c92c4",
"`2 c #1cb2ec",
"`3 c #74d2f4",
"`4 c #bceafc",
"`5 c #1c86b4",
"`6 c #24baf4",
"`7 c #142624",
"`8 c #0cc2ac",
".` c #1c6684",
".. c #0cfadc",
".# c #1c465c",
".a c #149684",
".b c #141e1c",
".c c #143e3c",
".d c #0cb2a4",
".e c #147a74",
".f c #54caf4",
".g c #144e44",
".h c #34bef4",
".i c #142e2c",
".j c #1c92bc",
".k c #e4f6fc",
".l c #1c7694",
".m c #0ceed4",
".n c #1caee4",
".o c #1c5a74",
".p c #14424c",
".q c #143634",
".r c #b4e6fc",
".s c #1c4e64",
".t c #1c86ac",
".u c #1ca6dc",
".v c #14627c",
".w c #1cbaf4",
".x c #0cdecc",
".y c #0cbeac",
".z c #144654",
".A c #14867c",
".B c #142e34",
".C c #fcfefc",
".D c #14363c",
".E c #1c526c",
".F c #1c627c",
".G c #1c6a84",
".H c #149a8c",
".I c #149284",
".J c #8cdefc",
".K c #145a54",
".L c #0ccab4",
".M c #143a44",
".N c #0cae9c",
".O c #14766c",
".P c #4ccaf4",
".Q c #146e64",
".R c #142a2c",
".S c #1c8ebc",
".T c #dcf6fc",
".U c #0cead4",
".V c #1caae4",
".W c #145a74",
".X c #144644",
".Y c #143234",
".Z c #6cd2fc",
".0 c #144e64",
".1 c #1c82ac",
".2 c #1ca2d4",
".3 c #145e7c",
".4 c #14a294",
".5 c #1cb6f4",
".6 c #14222c",
".7 c #0cdac4",
".8 c #0cbaac",
"#` c #0cf6dc",
"#. c #a4e2fc",
"## c #84dafc",
"#a c #f4fafc",
"#b c #64cef4",
"#c c #44c2f4",
"#d c #1c9acc",
"#e c #1c7ea4",
"#f c #14625c",
"#g c #148274",
"#h c #143e4c",
"#i c #94defc",
"#j c #0cd2bc",
"#k c #34c2f4",
"#l c #b4eafc",
"#m c #14526c",
"#n c #1c5e7c",
"#o c #74d2fc",
"#p c #14262c",
"#q c #0cfae4",
"#r c #14968c",
"#s c #141e24",
"#t c #144e4c",
"#u c #1c769c",
"#v c #14465c",
"#w c #142e3c",
"#x c #143644",
"#y c #1c6a8c",
"#z c #000000",
"#A c #000000",
"#B c #000000",
"#C c #000000",
"#D c #000000",
"#E c #000000",
"#F c #000000",
"#G c #000000",
"#H c #000000",
"#I c #000000",
"#J c #000000",
"#K c #000000",
"#L c #000000",
"#M c #000000",
"#N c #000000",
"#O c #000000",
"#P c #000000",
"#Q c #000000",
"#R c #000000",
"#S c #000000",
"#T c #000000",
"#U c #000000",
"#V c #000000",
"#W c #000000",
"#X c #000000",
"#Y c #000000",
"#Z c #000000",
"#0 c #000000",
"#1 c #000000",
"#2 c #000000",
"#3 c #000000",
"#4 c #000000",
"#5 c #000000",
"#6 c #000000",
"#7 c #000000",
"#8 c #000000",
"a` c #000000",
"a. c #000000",
"a# c #000000",
"aa c #000000",
"ab c #000000",
"ac c #000000",
"ad c #000000",
"ae c #000000",
"af c #000000",
"ag c #000000",
"ah c #000000",
"ai c #000000",
"aj c #000000",
"ak c #000000",
"al c #000000",
"am c #000000",
"an c #000000",
"ao c #000000",
"ap c #000000",
"aq c #000000",
"ar c #000000",
"as c #000000",
"at c #000000",
"au c #000000",
"av c #000000",
"aw c #000000",
"ax c #000000",
"ay c #000000",
"az c #000000",
"aA c #000000",
"aB c #000000",
"aC c #000000",
"aD c #000000",
"aE c #000000",
"aF c #000000",
"aG c #000000",
"aH c #000000",
"aI c #000000",
"aJ c #000000",
"aK c #000000",
"aL c #000000",
"aM c #000000",
"aN c #000000",
"aO c #000000",
"aP c #000000",
"aQ c #000000",
"aR c #000000",
"aS c #000000",
"aT c #000000",
"aU c #000000",
"aV c #000000",
"aW c #000000",
"aX c #000000",
"aY c #000000",
"aZ c #000000",
"a0 c #000000",
"a1 c #000000",
"a2 c #000000",
"a3 c #000000",
"a4 c #000000",
"a5 c #000000",
"a6 c #000000",
"a7 c #000000",
"a8 c #000000",
/* pixels */
".C.C.C.C.C.C.C.C.C.C.C.C.C.C.C.C.C.C.C.C.C.C.C.C`M.r`#`s`z`T`i`6`6`i`T`z.Z`#.r`M.C.C.C.C.C.C.C.C.C.C.C.C.C.C.C.C.C.C.C.C.C.C.C.C",
".C.C.C.C.C.C.C.C.C.C.C.C.C.C.C.C.C.C.C.C.C`l###c.w.w.5.w`2.2#d.S.S`L.2.V.5.w.w.w#c##`l.C.C.C.C.C.C.C.C.C.C.C.C.C.C.C.C.C.C.C.C.C",
".C.C.C.C.C.C.C.C.C.C.C.C.C.C.C.C.C.C#a`I`T.w.5`2.S`E`G`K````````````````#s.M`p#e`o.5.w`z#i#a.C.C.C.C.C.C.C.C.C.C.C.C.C.C.C.C.C.C",
".C.C.C.C.C.C.C.C.C.C.C.C.C.C.C.C#a.J`i.w.5`V.0#s``````````````````````````````````#x`m.V.w`i`##a.C.C.C.C.C.C.C.C.C.C.C.C.C.C.C.C",
".C.C.C.C.C.C.C.C.C.C.C.C.C.C.C`t`i.w.n`m.R``````````````````````````````````````````````#m.2.w`i`I.C.C.C.C.C.C.C.C.C.C.C.C.C.C.C",
".C.C.C.C.C.C.C.C.C.C.C.C.C.k.P.5.5`m#p``````````````````````````````````````````````````````.#`o.w.f.T.C.C.C.C.C.C.C.C.C.C.C.C.C",
".C.C.C.C.C.C.C.C.C.C.C.C`4`i.5`1.D````````````````````````````````````````````````````````````#s`W.5`i.r.C.C.C.C.C.C.C.C.C.C.C.C",
".C.C.C.C.C.C.C.C.C.C.C##.5.5`W````````````````````````````````````````````````````````````````````#x.2.w##.C.C.C.C.C.C.C.C.C.C.C",
".C.C.C.C.C.C.C.C.C.C.Z.5.n`G`````````````````````````````````````````````````````````````````````````B`V.w.Z.C.C.C.C.C.C.C.C.C.C",
".C.C.C.C.C.C.C.C.C`S.5`o`N```````````````````````````````````````````````````````````````````````````````U.5`S.C.C.C.C.C.C.C.C.C",
".C.C.C.C.C.C.C.C#o.w.2`K```````````````````````````````````````````````````````````````````````````````````m.w.Z.C.C.C.C.C.C.C.C",
".C.C.C.C.C.C.C##.5`o`K``````````````````````.O.4.4.4.4.4.4.4.4.4.4.4.4.4`.`e`c```````````````````````````````U.5##.C.C.C.C.C.C.C",
".C.C.C.C.C.C.r.w.n`N`````````````````````````C..#q#q..#q#q..#q#q..#q#q#q#q#q..#j`Q`````````````````````````````V.5.r.C.C.C.C.C.C",
".C.C.C.C.C.k`i.5#m``````````````````````````..#q#q..#q#q#q#q#q..#q#q..#q..#q#q.....N`B````````````````````````#s.u`i.k.C.C.C.C.C",
".C.C.C.C.C.P.5#u``````````````````````````.#....#q#q#q..#q..#q#q#q#q#q#q#q#q..#q....#j.b````````````````````````#x`A.f.C.C.C.C.C",
".C.C.C.C`t.5.u#s``````````````````````````.O..#q#q..#q#q#q#q#q..#q..#q..#q#q#q#q#q#q..`D``````````````````````````#y.5`t.C.C.C.C",
".C.C.C#a`i.w`u````````````````````````````.4..#q#q#q#q..#q..#q#q#q#q#q#q..#q..#q..#q#q#q.K``````````````````````````.u.h#a.C.C.C",
".C.C.C`#.w`5```````````````````````````````Z..#q..#q#q#q#q#q#q..#q..#q#q#q#q#q#q#q#q..#q.y``````````````````````````.#.w`#.C.C.C",
".C.C#a`i.5#h```````````````````````````````F..#q#q#q..#q..#q#q#q#q#q#q..#q..#q..#q#q#q..`F````````````````````````````#d`i#a.C.C",
".C.C#i.w`V``````````````````````````````.c..#q#q..#q#q#q#q..#g`j.g.A.U..#q#q#q#q..#q#q....`c``````````````````````````.#.w`I.C.C",
".C.C`z.5#v``````````````````````````````.Q#q..#q#q#q..#q#q#q`a```````r.m#q..#q#q#q..#q#q#q.X````````````````````````````.u`z.C.C",
".C`l.5.n````````````````````````````````.a#q#q#q..#q#q..#q..`r`````````.#q#q#q..#q#q#q..#q.g`````````````````````````````W.w`l.C",
".C##.5`m`````````````````````````````````b..#q#q#q#q#q#q#q`F``````````#f..#q#q#q#q..#q#q...c````````````````````````````.B`6##.C",
".C#c.w`G````````````````````````````````.m#q..#q..#q..#q..`Z``````````.K#q..#q..#q#q#q#q#q`j``````````````````````````````.2`f.C",
"`M.w`2#s```````````````````````````````r..#q#q#q#q#q#q#q..`y```````````e#q#q#q#q#q..#q..`F````````````````````````````````#u.w`M",
".r.w.S`````````````````````````````````Q....#q..#q..#q#q#q.A```````````...#q..#q#q#q#q#q`Z````````````````````````````````.s`6.r",
"`#.w`m`````````````````````````````````...#q#q#q#q#q..#q..#f```````````D#q#q#q..#q..#q..`d`````````````````````````````````K`6`#",
"`s.5.W````````````````````````````````.K#g.x..#q..#q#q#q...y`h````````.H.d.x..#q#q#q#q...U.L`.```````````````````````````````6`s",
"`z.w`G````````````````````````````````````.x..#q#q#q..#q#q...O`````````````b..#q#q..#q#q..#q.H```````````````````````````````w`f",
"#k.5#x``````````````````````````````````.b..#q#q..#q#q#q#q#q.g``````````.i..#q..#q#q#q#q#q..#f```````````````````````````````1`T",
"`i.w.B``````````````````````````````````.X..#q#q#q#q..#q..#q`7``````````.4..#q#q#q..#q..#q`F.b```````````````````````````````V.h",
"`6.5#p``````````````````````````````````.Q#q..#q..#q#q#q#q.x``````````#f#q#q..#q#q#q#q#q..`y````````````````````````````````.1`6",
"`6.w#p``````````````````````````````````.a#q#q#q#q#q..#q...d````````.A....#q#q#q..#q..#q...c````````````````````````````````.1`6",
"`i.w#w``````````````````````````````````.y#q..#q..#q#q#q#q.y#g.I`D.U..#q#q#q..#q#q#q#q#q.d```````````````````````````````````V#k",
"#k.5.M``````````````````````````````````.U..#q#q#q#q..#q......#q..#q#q..#q#q#q..#q..#q`F`r```````````````````````````````````1`T",
"`f.w.#````````````````````````````````.R..#q#q#q..#q#q#q#q#q#q#q#q#q..#q#q..#q#q#q#q..`0````````````````````````````````````.u.f",
".Z.5.F````````````````````````````````#f..#q#q..#q#q#q..#q..#q..#q#q#q#q..#q#q..#q`F`Y```````````````````````````````````````6.Z",
"`#.w`U`````````````````````````````````.#q#q#q#q#q..#q#q#q#q#q#q..#q..#q#q#q#q#q`b`c```````````````````````````````````````N`6`X",
".r.w#d`````````````````````````````````D#q..#q..#q#q#q..#q..#q#q#q#q#q#q....`b#f``````````````````````````````````````````.o`6.r",
"`M.w.5`B```````````````````````````````n..#q#q#q#q..#q#q#q#q#q..#q#`.L`y.e`r``````````````````````````````````````````````.1`6`M",
".C#c.w.s`````````````````````````````B`Z`Z#j`Z`8`D.N.4`H.A`e`Y`q.i````````````````````````````````````````````````````````.V`f.C",
".C##.5.t`````````````````````````````````````````````````````````````````````````````````````````````````````````````````R`6##.C",
".C`l.5`2#s```````````````````````````````````````````````````````````````````````````````````````````````````````````````U`6`l.C",
".C.C`z.w.o````````````````````````````````````.#.R#h.##h.D.D`K.#``.M.p#h.D``.#.B````````````````````````````````````````.n`f.C.C",
".C.C#i.w.u``````````````````````````````````#p.R.#.#.E.`.##h.#.F.b.#.p.#`K.o.#.p``````````````````````````````````````.F`6`I.C.C",
".C.C#a`i.5.s``````````````````````````````````.#`7.M.R.B.D`N#p.Y.#`B`K`N`B.c#w.D``````````````````````````````````````.V.h#a.C.C",
".C.C.C.J.5.2````````````````````````````````````#h#x``````#x.M````#s#x.D```N.6````#s````````````````````````````````.F`6`#.C.C.C",
".C.C.C#a`i.w.F``````````````````````````````.B`V.o.G.l``.1.`#n.S`B.B.j#n``.j.1``.M.F``````````````````````````````.6`6.h#a.C.C.C",
".C.C.C.C`t.5`2`K````````````````````````````.1#p``````.s.F````.#.```#u.B``.t`W`R.M.F``````````````````````````````.1`6`t.C.C.C.C",
".C.C.C.C.C.f.5#d`````````````````````````````V````````.`.#````.R.1``.l#w``.t#p.t`R.`````````````````````````````.E`6.f.C.C.C.C.C",
".C.C.C.C.C.T`i.5`m```````````````````````````V````````.o.s`````N`m``.l#w``.t``#y.F.F```````````````````````````K`6`i.k.C.C.C.C.C",
".C.C.C.C.C.C.r.w`6.E````````````````````````.o#y```K.E.R.j#p`B.t#h```m`N``.t``#s.2.F````````````````````````#s.u`6.r.C.C.C.C.C.C",
".C.C.C.C.C.C.C##.5.5.#````````````````````````.s`U.l#h```N.l#u.#``#x#u`W``.o````.s.#`````````````````````````w`6`#.C.C.C.C.C.C.C",
".C.C.C.C.C.C.C.C#o.w`2.#```````````````````````````````````````````````````````````````````````````````````L`6.Z.C.C.C.C.C.C.C.C",
".C.C.C.C.C.C.C.C.C`S.5`A.E````````````````````````````````````````````````````````````````````````````#s.2`6#b.C.C.C.C.C.C.C.C.C",
".C.C.C.C.C.C.C.C.C.C#o.5`6#y````````````````````````````````````````````````````````````````````````#x.V`6#o.C.C.C.C.C.C.C.C.C.C",
".C.C.C.C.C.C.C.C.C.C.C##.5.5.j#p``````````````````````````````````````````````````````````````````.F`6`6`#.C.C.C.C.C.C.C.C.C.C.C",
".C.C.C.C.C.C.C.C.C.C.C.C`4`i.w`2#n````````````````````````````````````````````````````````````#w`L`6`i.r.C.C.C.C.C.C.C.C.C.C.C.C",
".C.C.C.C.C.C.C.C.C.C.C.C.C.k.f.5`6`w.#````````````````````````````````````````````````````#p#e`6`6.f.k.C.C.C.C.C.C.C.C.C.C.C.C.C",
".C.C.C.C.C.C.C.C.C.C.C.C.C.C.C`t.h.5`6`w.s`````````````````````````````````````````````N#e`6`6`i#..C.C.C.C.C.C.C.C.C.C.C.C.C.C.C",
".C.C.C.C.C.C.C.C.C.C.C.C.C.C.C.C#a`#`i.5`6.n`U.#````````````````````````````````#w.F.2`6`6.h`##a.C.C.C.C.C.C.C.C.C.C.C.C.C.C.C.C",
".C.C.C.C.C.C.C.C.C.C.C.C.C.C.C.C.C.C#a`I#c.w`6`6`2`1`W.E#h`K.6````#s#p`N.s.F.1.V`6`6`6#c`I#a.C.C.C.C.C.C.C.C.C.C.C.C.C.C.C.C.C.C",
".C.C.C.C.C.C.C.C.C.C.C.C.C.C.C.C.C.C.C.C.C`l###c`6`6`6`6`6`6`6`6`6`6`6`6`6`6`6`6`f##`l.C.C.C.C.C.C.C.C.C.C.C.C.C.C.C.C.C.C.C.C.C",
".C.C.C.C.C.C.C.C.C.C.C.C.C.C.C.C.C.C.C.C.C.C.C.C`M.r`#.Z`f`T`i`6`6`i`T`f.Z`#`4`M.C.C.C.C.C.C.C.C.C.C.C.C.C.C.C.C.C.C.C.C.C.C.C.C"
};
