/* XPM */
static char *bitcoin32_xpm[] = {
/* width height num_colors chars_per_pixel */
"    32    32      256            2",
/* colors */
"`` c #ffffff",
"`. c #f1fafe",
"`# c #afe6fa",
"`a c #75d5f7",
"`b c #4bc7f6",
"`c c #2db8ea",
"`d c #1fa8db",
"`e c #20a5d8",
"`f c #2db6e9",
"`g c #75d5f9",
"`h c #b0e7fa",
"`i c #f3fbfd",
"`j c #ddf3fd",
"`k c #73d3f7",
"`l c #23aee4",
"`m c #197698",
"`n c #17495b",
"`o c #16282f",
"`p c #161819",
"`q c #172227",
"`r c #164151",
"`s c #196c8b",
"`t c #22a6d7",
"`u c #74d4f7",
"`v c #def3fc",
"`w c #f6fcff",
"`x c #83d9f9",
"`y c #1face1",
"`z c #175d78",
"`A c #161c1f",
"`B c #16191a",
"`C c #174d62",
"`D c #1fa2d6",
"`E c #84d9f9",
"`F c #f8fcff",
"`G c #43c4f5",
"`H c #162125",
"`I c #161c1e",
"`J c #175f7b",
"`K c #4dc4f1",
"`L c #e7f8fe",
"`M c #d4f2fc",
"`N c #2ebbf2",
"`O c #185b74",
"`P c #173e4d",
"`Q c #32b3e3",
"`R c #d6f3fd",
"`S c #174456",
"`T c #135953",
"`U c #13645c",
"`V c #13514c",
"`W c #152020",
"`X c #17303a",
"`Y c #33b6e7",
"`Z c #e8f8fd",
"`0 c #45c4f6",
"`1 c #185c75",
"`2 c #161d1d",
"`3 c #0cf4dc",
"`4 c #0bfbe2",
"`5 c #0bf0d8",
"`6 c #118c7f",
"`7 c #48c4f0",
"`8 c #197fa3",
".` c #14403d",
".. c #0faa9b",
".# c #17607c",
".a c #8cdcfa",
".b c #20b5ec",
".c c #172930",
".d c #126c63",
".e c #13524d",
".f c #24a3d6",
".g c #196b89",
".h c #10988a",
".i c #0fa798",
".j c #0eb0a0",
".k c #0bf6de",
".l c #109084",
".m c #174d61",
".n c #7ad5f9",
".o c #24b8f0",
".p c #16242a",
".q c #0dc3b0",
".r c #152d2b",
".s c #12776e",
".t c #0f998c",
".u c #23a6d6",
".v c #1a88b1",
".w c #0bedd6",
".x c #0becd5",
".y c #143f3c",
".z c #109587",
".A c #b2e7fa",
".B c #143533",
".C c #0dc7b5",
".D c #144e49",
".E c #127a6f",
".F c #16404f",
".G c #76d4f9",
".H c #173e4e",
".I c #134945",
".J c #0dd5c0",
".K c #0dc5b2",
".L c #152e2c",
".M c #13625b",
".N c #0cdcc6",
".O c #0f9e8f",
".P c #153735",
".Q c #162226",
".R c #4ec8f5",
".S c #2dbff4",
".T c #162a31",
".U c #10877c",
".V c #143c39",
".W c #118377",
".X c #134743",
".Y c #2db2e4",
".Z c #21bbf4",
".0 c #0eb2a1",
".1 c #0cf3db",
".2 c #161b1c",
".3 c #15302d",
".4 c #0ce7d0",
".5 c #0ce1cb",
".6 c #161a1b",
".7 c #21a5d7",
".8 c #172126",
"#` c #0dddc7",
"#. c #0cd9c3",
"## c #135a54",
"#a c #117f75",
"#b c #0ce2cc",
"#c c #117e74",
"#d c #21a7da",
"#e c #162d35",
"#f c #162625",
"#g c #0bfae1",
"#h c #2eb4e8",
"#i c #174353",
"#j c #144f4a",
"#k c #0fb7a6",
"#l c #162424",
"#m c #16252b",
"#n c #176481",
"#o c #0bf8df",
"#p c #0cd8c3",
"#q c #0fa697",
"#r c #13544d",
"#s c #16475a",
"#t c #78d5f9",
"#u c #1990bc",
"#v c #134b46",
"#w c #126e65",
"#x c #125d55",
"#y c #13554e",
"#z c #134c46",
"#A c #15312f",
"#B c #187496",
"#C c #b2e7fb",
"#D c #f3fbfe",
"#E c #25baf2",
"#F c #162c34",
"#G c #17282f",
"#H c #17313b",
"#I c #162a32",
"#J c #16333e",
"#K c #162429",
"#L c #24aee1",
"#M c #197a9d",
"#N c #163946",
"#O c #184658",
"#P c #17404f",
"#Q c #16323d",
"#R c #173744",
"#S c #173845",
"#T c #173a47",
"#U c #21b8f1",
"#V c #184d62",
"#W c #172f39",
"#X c #175064",
"#Y c #175167",
"#Z c #185a73",
"#0 c #173d4b",
"#1 c #173640",
"#2 c #162023",
"#3 c #20abe0",
"#4 c #e0f5fd",
"#5 c #1a8eba",
"#6 c #161a1c",
"#7 c #17576f",
"#8 c #173a48",
"a` c #18546a",
"a. c #175065",
"a# c #17566c",
"aa c #87d9f9",
"ab c #197393",
"ac c #185f7a",
"ad c #161f22",
"ae c #173c4b",
"af c #187395",
"ag c #175269",
"ah c #4ec7f5",
"ai c #35c0f6",
"aj c #16272e",
"ak c #17495a",
"al c #173642",
"am c #172f38",
"an c #174352",
"ao c #32bcee",
"ap c #e6f6fe",
"aq c #34c0f6",
"ar c #19799c",
"as c #34bdf0",
"at c #d6f2fd",
"au c #ebf8fe",
"av c #52c9f6",
"aw c #16313c",
"ax c #197ca0",
"ay c #25b9f0",
"az c #162b33",
"aA c #196986",
"aB c #21b3e9",
"aC c #87daf9",
"aD c #186380",
"aE c #174251",
"aF c #1986b0",
"aG c #25b8ef",
"aH c #4dc7f5",
"aI c #30bef5",
"aJ c #79d6f9",
"aK c #000000",
"aL c #000000",
"aM c #000000",
"aN c #000000",
"aO c #000000",
"aP c #000000",
"aQ c #000000",
"aR c #000000",
"aS c #000000",
"aT c #000000",
"aU c #000000",
"aV c #000000",
"aW c #000000",
"aX c #000000",
"aY c #000000",
"aZ c #000000",
"a0 c #000000",
"a1 c #000000",
"a2 c #000000",
"a3 c #000000",
"a4 c #000000",
"a5 c #000000",
"a6 c #000000",
"a7 c #000000",
"a8 c #000000",
/* pixels */
"`````````````````````.`#`a`b`c`d`e`f`b`g`h`i````````````````````",
"`````````````````j`k`l`m`n`o`p`p`p`p`q`r`s`t`u`v````````````````",
"`````````````w`x`y`z`A`p`p`p`p`p`p`p`p`p`p`B`C`D`E`F````````````",
"```````````v`G`m`H`p`p`p`p`p`p`p`p`p`p`p`p`p`p`I`J`K`L``````````",
"`````````M`N`O`p`p`p`p`p`p`p`p`p`p`p`p`p`p`p`p`p`p`P`Q`R````````",
"```````v`N`S`p`p`p`p`p`T`U`U`U`U`U`U`V`W`p`p`p`p`p`p`X`Y`Z``````",
"`````F`0`1`p`p`p`p`p`2`3`4`4`4`4`4`4`4`5`6`2`p`p`p`p`p`P`7`w````",
"`````x`8`p`p`p`p`p`p.``4`4`4`4`4`4`4`4`4`4..`p`p`p`p`p`p.#.a````",
"```j.b.c`p`p`p`p`p`p.d`4`4`4`4`4`4`4`4`4`4`4.e`p`p`p`p`p`I.f`Z``",
"```k.g`p`p`p`p`p`p`p.h`4`4`4`4.i.j.k`4`4`4`4.l`p`p`p`p`p`p.m.n``",
"`..o.p`p`p`p`p`p`p`p.q`4`4`4`4.r`p.s`4`4`4`4.t`p`p`p`p`p`p`B.u`i",
"`#.v`p`p`p`p`p`p`p`B.w`4`4`4.x`p`p.y`4`4`4`4.z`p`p`p`p`p`p`p`s.A",
"`a`z`p`p`p`p`p`p`p.B`4`4`4`4.C`p`p.D`4`4`4`4.E`p`p`p`p`p`p`p.F.G",
"`b.H`p`p`p`p`p`p`p.I.J`4`4`4.K.L`p.M.N`4`4`4.O.P`p`p`p`p`p`p.Q.R",
".S.T`p`p`p`p`p`p`p`p.U`4`4`4`4.V`p`p.W`4`4`4`4.X`p`p`p`p`p`p`p.Y",
".Z.Q`p`p`p`p`p`p`p`p.0`4`4`4.1.2`p.3.4`4`4`4.5.6`p`p`p`p`p`p`p.7",
".Z.8`p`p`p`p`p`p`p`p#``4`4`4#.###a#b`4`4`4`4#c`p`p`p`p`p`p`p`p#d",
".S#e`p`p`p`p`p`p`p#f#g`4`4`4`4`4`4`4`4`4`4.C`2`p`p`p`p`p`p`p`p#h",
"`b#i`p`p`p`p`p`p`p#j`4`4`4`4`4`4`4`4`4`4#k#l`p`p`p`p`p`p`p`p#m.R",
"`g#n`p`p`p`p`p`p`p.E`4`4`4`4`4`4#o#p#q#r`p`p`p`p`p`p`p`p`p`p#s#t",
"`h#u`p`p`p`p`p`p`p#v#w`U#x#y#z#A`2`p`p`p`p`p`p`p`p`p`p`p`p`p#B#C",
"#D#E#F`p`p`p`p`p`p`p`p#G.T#H#F#I#m#J#K`X`p`p`p`p`p`p`p`p`p`I#L#D",
"```u#M`p`p`p`p`p`p`p`p#H#N#O#N#P#Q#R#S#T`p`p`p`p`p`p`p`p`p`1`g``",
"```v#U#J`p`p`p`p`p`p`p`P#V#W#X#Y#K#Z#0#1#T`p`p`p`p`p`p`p#2#3#4``",
"`````E#5#6`p`p`p`p`p`p#7`p#8#1.c#Oa`a.a#a.`p`p`p`p`p`p`p#Baa````",
"`````F.Rab`p`p`p`p`p`pacadae`n`P#Ra`a.#Waf`p`p`p`p`p`pagah`F````",
"```````Zai`1`p`p`p`p`pajak`Hal#8#2#Paj`pam`p`p`p`p`panaoap``````",
"`````````Raqar`I`p`p`p`p`p`p`p`p`p`p`p`p`p`p`p`p`p#7asat````````",
"``````````auav#5aw`p`p`p`p`p`p`p`p`p`p`p`p`p`pajaxah`Z``````````",
"`````````````F.aay#Maz`p`p`p`p`p`p`p`p`p`p`qaAaBaC`F````````````",
"`````````````````Z.n#E#uaDaE.T`Hadajae`1aFaG.G#4````````````````",
"````````````````````#D.A#taHaI.Z.ZaIaHaJ#C#D````````````````````"
};
