<?xml version="1.0" encoding="UTF-8" standalone="no"?>
<!-- Created with Inkscape (http://www.inkscape.org/) -->

<svg
   width="554mm"
   height="554mm"
   viewBox="0 0 554 554"
   version="1.1"
   id="svg1"
   inkscape:version="1.3 (0e150ed, 2023-07-21)"
   sodipodi:docname="bitcoin.svg"
   xmlns:inkscape="http://www.inkscape.org/namespaces/inkscape"
   xmlns:sodipodi="http://sodipodi.sourceforge.net/DTD/sodipodi-0.dtd"
   xmlns="http://www.w3.org/2000/svg"
   xmlns:svg="http://www.w3.org/2000/svg">
  <sodipodi:namedview
     id="namedview1"
     pagecolor="#ffffff"
     bordercolor="#000000"
     borderopacity="0.25"
     inkscape:showpageshadow="2"
     inkscape:pageopacity="0.0"
     inkscape:pagecheckerboard="0"
     inkscape:deskcolor="#d1d1d1"
     inkscape:document-units="mm"
     inkscape:zoom="0.17794788"
     inkscape:cx="632.20758"
     inkscape:cy="1896.6227"
     inkscape:window-width="1392"
     inkscape:window-height="942"
     inkscape:window-x="0"
     inkscape:window-y="25"
     inkscape:window-maximized="0"
     inkscape:current-layer="layer1" />
  <defs
     id="defs1" />
  <g
     inkscape:label="Layer 1"
     inkscape:groupmode="layer"
     id="layer1"
     transform="translate(171.97917,128.5875)">
    <g
       id="g232524"
       inkscape:export-filename="../../../../../../../../Users/rob/Downloads/iconset/bitcoin.iconset/bitcoin_90x90.png"
       inkscape:export-xdpi="3.8249412"
       inkscape:export-ydpi="3.8249412"
       transform="matrix(0.08147059,0,0,0.08147059,-222.04217,-166.05693)">
      <circle
         style="fill:#1ab8f3;fill-opacity:0.988235;stroke-width:0.259451"
         id="path4732"
         cx="4014.4917"
         cy="3859.9136"
         r="3400" />
      <circle
         style="fill:#161819;fill-opacity:1;stroke-width:0.269339"
         id="path24533"
         cx="4035.2334"
         cy="3843.1118"
         r="3200" />
      <text
         xml:space="preserve"
         style="font-style:normal;font-variant:normal;font-weight:normal;font-stretch:normal;font-size:301.91px;line-height:1.25;font-family:Garde;-inkscape-font-specification:'Garde, Normal';font-variant-ligatures:normal;font-variant-caps:normal;font-variant-numeric:normal;font-variant-east-asian:normal;fill:#1ab6f0;fill-opacity:1;stroke:none;stroke-width:1.13215"
         x="3066.3862"
         y="5201.9468"
         id="text81672"
         transform="scale(0.98282339,1.0174768)"><tspan
           sodipodi:role="line"
           id="tspan81670"
           style="font-style:normal;font-variant:normal;font-weight:normal;font-stretch:normal;font-size:301.91px;font-family:Garde;-inkscape-font-specification:'Garde, Normal';font-variant-ligatures:normal;font-variant-caps:normal;font-variant-numeric:normal;font-variant-east-asian:normal;fill:#1ab6f0;fill-opacity:1;stroke-width:1.13215"
           x="3066.3862"
           y="5201.9468">DIMINUTIVE</tspan></text>
      <text
         xml:space="preserve"
         style="font-style:normal;font-variant:normal;font-weight:normal;font-stretch:normal;font-size:833.592px;line-height:1.25;font-family:Garde;-inkscape-font-specification:'Garde, Normal';font-variant-ligatures:normal;font-variant-caps:normal;font-variant-numeric:normal;font-variant-east-asian:normal;fill:#1ab6f0;fill-opacity:1;stroke:none;stroke-width:1.56299"
         x="2933.6338"
         y="5993.1113"
         id="text109177"
         transform="scale(0.99131755,1.0087585)"><tspan
           sodipodi:role="line"
           id="tspan109175"
           style="font-style:normal;font-variant:normal;font-weight:normal;font-stretch:normal;font-size:833.592px;font-family:Garde;-inkscape-font-specification:'Garde, Normal';font-variant-ligatures:normal;font-variant-caps:normal;font-variant-numeric:normal;font-variant-east-asian:normal;fill:#1ab6f0;fill-opacity:1;stroke-width:1.56299"
           x="2933.6338"
           y="5993.1113">COIN</tspan></text>
      <path
         style="fill:#0bfbe2;fill-opacity:1;stroke:#000000;stroke-width:0.280297px;stroke-linecap:butt;stroke-linejoin:miter;stroke-opacity:1"
         d="m 2988.9109,1663.0099 c -167.695,924.033 -185.2043,1012.3393 -327.0132,1712.3061 2.8615,2.3768 -1.8861,-1.0257 217.2754,-0.4702 -105.4115,625.0419 -157.1699,864.7805 -267.8663,1422.8838 664.4353,6.7013 1520.3206,-55.3735 1911.7139,-154.9487 272.9696,-95.754 298.0028,-98.3399 473.6983,-219.4688 104.8095,-72.2583 115.6553,-81.7084 239.1205,-220.5639 77.5649,-87.2337 75.5536,-99.906 123.9196,-179.4541 55.4607,-102.6645 67.6107,-129.8886 100.9133,-214.2207 54.2522,-137.3828 111.8269,-283.5669 121.0701,-455.6603 0,0 -113.0334,-0.8673 -236.0585,-0.7604 9.9052,-66.6767 15.0234,-98.0338 24.0157,-156.1364 9.5071,-61.4277 19.8364,-127.7326 38.0455,-261.2805 13.5413,-99.3138 21.8875,-279.2705 5.6346,-411.8704 -16.3043,-133.0183 -45.9896,-248.3644 -128.0348,-390.6278 -115.2171,-158.0032 -218.6634,-252.0809 -395.5712,-350.75 -197.3721,-95.005 -369.8017,-113.5474 -497.6153,-118.1291 -99.2709,-3.5584 -171.5754,-1.7785 -208.0826,-1.1202 -213.1362,-0.9974 -737.1407,-1.2663 -1195.165,0.2713 z"
         id="path175733"
         sodipodi:nodetypes="cccccsscsccsssccsccc" />
      <path
         style="fill:#161819;fill-opacity:1;stroke:#000000;stroke-width:0.0952949px;stroke-linecap:butt;stroke-linejoin:miter;stroke-opacity:1"
         d="m 3854.1818,2480.9505 c -74.4976,450.6971 -90.54,556.3496 -139.6262,883.9411 38.5988,0.1021 99.7923,0.3336 154.6659,0.233 -51.1059,314.326 -66.2665,390.288 -124.4856,667.8644 195.3639,-15.3617 330.0421,-29.1221 405.4646,-55.081 102.1566,-40.7819 114.7049,-49.5896 173.928,-95.9652 28.1983,-22.0811 49.7365,-48.6399 77.8541,-78.1016 20.7736,-21.7667 35.2153,-43.545 63.2154,-84.2296 33.374,-47.1168 40.1559,-60.296 60.4204,-100.9697 16.8198,-33.7595 22.3239,-50.0463 37.1057,-96.0564 16.9082,-52.6286 20.1732,-69.8272 28.4853,-125.6161 0,0 -119.9279,-1.2007 -258.4043,-1.2007 6.0325,-31.501 25.7079,-105.9711 31.0506,-133.4098 5.6482,-29.009 10.8046,-53.2694 22.4978,-116.4156 8.6958,-46.9589 19.1054,-130.9246 22.5263,-194.721 3.4315,-63.9975 0.3626,-114.9836 -18.0237,-185.2989 -17.0723,-74.2041 -31.1051,-95.0993 -72.74,-145.6128 -32.3167,-30.5401 -57.5922,-54.1786 -74.9193,-62.9417 -21.9853,-11.1188 -40.8595,-22.4585 -64.4605,-30.2499 -47.6607,-15.7356 -77.646,-23.8615 -170.3582,-38.4472 z"
         id="path175733-8"
         sodipodi:nodetypes="cccccsscssccsssccsccc" />
    </g>
  </g>
</svg>
